<?xml version="1.0" encoding="UTF-8"?>
<!-- Generator: Adobe Illustrator 19.1.0, SVG Export Plug-In . SVG Version: 6.00 Build 0)  -->
<svg xmlns="http://www.w3.org/2000/svg" xmlns:xlink="http://www.w3.org/1999/xlink" xmlns:dc="http://purl.org/dc/elements/1.1/" xmlns:cc="http://creativecommons.org/ns#" xmlns:rdf="http://www.w3.org/1999/02/22-rdf-syntax-ns#" version="1.1" id="DESIGNS" x="0px" y="0px" width="32px" height="32px" viewBox="0 0 32 32" style="enable-background:new 0 0 32 32;" xml:space="preserve">
<title property="dc:title">to creep</title><desc property="dc:description">An icon for "creep" from the Lines and Angles series on to [icon]. Downloaded from http://www.toicon.com/icons/lines-and-angles_creep by 127.0.0.1 on 2017-07-10. Licensed CC-BY, see http://toicon.com/license/ for details.</desc>
<path class="linesandangles_een" d="M22.496,16.658C25.115,15.971,28,14.114,28,10h-2c0,3.232-2.481,4.371-4.253,4.774  c-0.11-0.457-0.256-0.888-0.433-1.289C23.147,12.681,25,10.806,25,7h-2c0,3.225-1.615,4.367-2.803,4.774  c-0.381-0.412-0.814-0.761-1.296-1.036C19.578,10.021,20,9.061,20,8c0-2.206-1.794-4-4-4s-4,1.794-4,4  c0,1.061,0.422,2.021,1.099,2.738c-0.482,0.275-0.915,0.624-1.296,1.036C10.615,11.367,9,10.225,9,7H7  c0,3.806,1.853,5.681,3.686,6.485c-0.177,0.402-0.323,0.832-0.433,1.289C8.481,14.371,6,13.232,6,10H4  c0,4.114,2.885,5.971,5.504,6.658C6.906,17.68,4,19.913,4,24h2c0-3.176,2.33-4.717,4.123-5.434c0.101,0.632,0.267,1.219,0.487,1.758  C9.128,20.936,7,22.727,7,28h2c0-4.656,1.85-5.697,2.654-5.931C12.705,23.296,14.205,24,16,24s3.295-0.704,4.346-1.931  C21.15,22.303,23,23.344,23,28h2c0-5.273-2.128-7.064-3.609-7.677c0.221-0.541,0.387-1.13,0.488-1.765  C23.671,19.271,26,20.807,26,24h2C28,19.913,25.094,17.68,22.496,16.658z M16,6c1.103,0,2,0.897,2,2s-0.897,2-2,2s-2-0.897-2-2  S14.897,6,16,6z M16,22c-2.949,0-4-2.583-4-5s1.051-5,4-5s4,2.583,4,5S18.949,22,16,22z" style="fill: #3b4144;"/>
<metadata><work rdf:about=""><format>image/svg+xml</format><type rdf:resource="http://purl.org/dc/dcmitype/StillImage"/><license rdf:resource="http://creativecommons.org/licenses/by/4.0/"/><attributionname>Shannon E Thomas</attributionname><attributionurl>http://www.toicon.com/icons/lines-and-angles_creep</attributionurl></work></metadata></svg>
